<?xml version="1.0" encoding="utf-8"?>
<!-- Generator: Adobe Illustrator 19.1.0, SVG Export Plug-In . SVG Version: 6.00 Build 0)  -->
<svg version="1.1" xmlns="http://www.w3.org/2000/svg" xmlns:xlink="http://www.w3.org/1999/xlink" x="0px" y="0px"
	 viewBox="0 0 833.9 365.6" enable-background="new 0 0 833.9 365.6" xml:space="preserve">
<g id="logo_copy">
	<g>
		<path fill="#FFFFFF" d="M411.4,29.3l-24.2,6.1c-1.3,0.3-2.6-0.5-3-1.8l-0.6-2.5c-0.3-1.3,0.5-2.6,1.8-3l24.2-6.1
			c1.3-0.3,2.6,0.5,3,1.8l0.6,2.5C413.5,27.6,412.7,28.9,411.4,29.3z"/>
		<path fill="#FFFFFF" d="M412.7,37.4l-24.2,6.1c-1.3,0.3-2.6-0.5-3-1.8l-0.6-2.5c-0.3-1.3,0.5-2.6,1.8-3l24.2-6.1
			c1.3-0.3,2.6,0.5,3,1.8l0.6,2.5C414.8,35.7,414,37,412.7,37.4z"/>
		<path fill="#FFFFFF" d="M414,45.5l-24.2,6.1c-1.3,0.3-2.6-0.5-3-1.8l-0.6-2.5c-0.3-1.3,0.5-2.6,1.8-3l24.2-6.1
			c1.3-0.3,2.6,0.5,3,1.8l0.6,2.5C416.1,43.8,415.3,45.1,414,45.5z"/>
		<path fill="#FFFFFF" d="M415.3,53.6L391,59.6c-1.3,0.3-2.6-0.5-3-1.8l-0.6-2.5c-0.3-1.3,0.5-2.6,1.8-3l24.2-6.1
			c1.3-0.3,2.6,0.5,3,1.8l0.6,2.5C417.4,51.9,416.6,53.2,415.3,53.6z"/>
		<path fill="#FFFFFF" d="M395.8,53.2c1.1,7,2,14,2.6,20.9c2.8,36.2-2.8,68-16.2,91.8c-12.9,22.7-30,37.4-46,39.3
			c-4.9,0.6-9.4-0.2-13-2.2c-14.5-7.9-11.4-30.6-3.6-49.7l10.3,19.1l-1.8-12.8c-3.1-22.8-0.1-40.9-0.1-41.1l2-12l-18.3,29.9
			c-23.2,43.9-12,70,4.6,79.1c4.9,2.7,10.5,4,16.5,4c1.6,0,3.2-0.1,4.9-0.3c5.9-0.7,12-2.6,18-5.7c14.7-7.6,28.1-21.7,38.9-40.7
			c19.2-33.9,22.2-79,15.4-121.7C405.2,51.8,400.5,52.5,395.8,53.2z"/>
		<path fill="#FFFFFF" d="M398.7,6.7c-1.4-3.7-5.5-5.6-9.2-4.2c-1.8,0.7-3.2,2-4,3.7c-0.8,1.7-0.9,3.7-0.2,5.5
			c4.9,13.2,8.7,27.8,11.3,42.8c1.3-0.8,3-1,4.7-0.6c-2.6-15.4-6.5-30.3-11.6-43.9c-0.2-0.6-0.2-1.3,0.1-1.9c0.3-0.6,0.8-1,1.4-1.3
			c0.6-0.2,1.3-0.2,1.9,0.1c0.6,0.3,1,0.8,1.3,1.4c5,13.4,9,28.3,11.7,44c1.3-0.8,3-1.1,4.6-0.7C407.9,35.7,403.9,20.4,398.7,6.7z"
			/>
		<g>
			<path fill="#FFFFFF" d="M413.1,192.5l2.5-4.6c10.1,5.2,21.5,8.2,32.9,9.9c11.4,1.7,23.1,2,34.4,0.5c5.7-0.7,11.3-1.9,16.6-3.8
				c5.3-1.8,10.4-4.3,14.8-7.6c4.4-3.3,8-7.4,10.5-12.2c2.5-4.8,3.7-10.2,3.9-15.7l-0.1-4.1c0-1.4-0.3-2.8-0.4-4.2
				c-0.2-2.8-0.9-5.5-1.6-8.2c-1.5-5.3-3.8-10.5-6.8-15.2c-5.9-9.5-14.4-17.4-23.9-23.3c-9.6-5.9-20.4-10-31.5-11.6
				c-1.4-0.2-2.8-0.3-4.2-0.5c-1.4-0.1-2.8-0.2-4.2-0.2c-2.8-0.1-5.6,0-8.3,0.3l-2,0.3l-1.9,0.4l-1.8,0.5l-0.8,0.3
				c-0.3,0.1-0.6,0.2-0.7,0.3l-0.5,0.2c-0.1,0.1-0.2,0.1-0.3,0.2c-0.2,0.1-0.3,0.3-0.4,0.4c-0.3,0.3-0.3,0.8-0.1,1.1
				c0.1,0.2,0.2,0.3,0.4,0.5c0.1,0.1,0.1,0.1,0.2,0.2l0.1,0.1l0.1,0l0.1,0.1l0.5,0.3l0.8,0.3c0.5,0.2,1.1,0.4,1.6,0.6
				c2.3,0.6,4.8,0.9,7.4,0.8c2.6-0.1,5.2-0.6,7.7-1.4c0.6-0.2,1.3-0.4,1.9-0.6c0.6-0.2,1.3-0.4,1.9-0.7l1.8-0.8l1.8-1
				c4.9-2.5,9.4-5.7,13.3-9.5c3.9-3.8,7.1-8.2,9.6-13c2.4-4.8,4-10,4.5-15.3c0.5-5.3,0.1-10.7-1.4-15.8
				c-2.8-10.2-10.1-18.8-19.4-23.9c-4.7-2.6-9.8-4.3-15.2-5.3c-1.3-0.3-2.7-0.5-4-0.6c-1.4-0.1-2.7-0.3-4.1-0.4
				c-2.8-0.2-5.6-0.2-8.5-0.2c-5.7,0.1-11.4,0.4-17.1,1.1c-5.6,0.7-11.2,1.7-16.3,3.4c-2.5,0.8-5,1.9-6.9,3.1c-1,0.6-1.8,1.3-2.6,2
				c-0.6,0.7-1.2,1.4-1.5,2c-0.1,0.2-0.1,0.3-0.2,0.5c0,0.2-0.1,0.3-0.1,0.5c0,0.2,0,0.3-0.1,0.5c0,0.1,0,0.2,0,0.3
				c0,0.5,0.3,1.5,0.8,2.6c0.9,2.2,2.3,4.5,3.8,6.8c3,4.6,6.6,9.2,10.2,13.7l5.5,6.9l2.8,3.5c0.9,1.2,1.9,2.4,2.9,3.9l-9.3,6
				c-0.6-1-1.5-2.1-2.3-3.2l-2.6-3.4l-5.5-6.9c-3.7-4.7-7.3-9.5-10.7-14.7c-1.7-2.6-3.3-5.4-4.6-8.7c-0.6-1.7-1.3-3.5-1.5-5.9
				c0-0.6,0-1.4,0-1.9c0.1-0.6,0.2-1.1,0.3-1.7c0.1-0.6,0.3-1.1,0.5-1.6c0.2-0.5,0.4-1.1,0.6-1.6c0.9-2.1,2.3-3.7,3.7-5.1
				c1.4-1.3,2.9-2.5,4.5-3.3c3-1.8,6.1-3,9.2-4c6.1-1.9,12.2-2.9,18.3-3.6c6.1-0.7,12.1-1,18.2-1c3,0,6.1,0.1,9.2,0.3
				c1.6,0.1,3.1,0.3,4.7,0.5c1.6,0.1,3.1,0.5,4.7,0.8c6.2,1.2,12.3,3.4,18,6.5c5.6,3.2,10.7,7.4,14.8,12.5l0.8,0.9l0.7,1l1.4,2
				c0.9,1.4,1.7,2.8,2.5,4.2c1.4,2.9,2.7,6,3.5,9.1c1.7,6.3,2.2,12.8,1.5,19.3c-0.8,6.4-2.7,12.7-5.6,18.4
				c-2.9,5.7-6.8,10.9-11.4,15.2c-4.6,4.4-9.9,8-15.4,10.8c-5.6,3-12,5-18.6,5.2c-3.3,0.1-6.7-0.2-10.1-1.2
				c-0.8-0.3-1.7-0.6-2.5-0.9l-1.3-0.6c-0.5-0.3-0.9-0.5-1.4-0.8c-2-1.3-4-3.3-4.7-5.5c-0.4-1.1-0.6-2.3-0.5-3.5
				c0.1-0.6,0.2-1.2,0.4-1.7l0.3-0.8c0.1-0.3,0.3-0.5,0.5-0.8l0.5-0.8c0.2-0.2,0.4-0.5,0.6-0.7c0.4-0.4,0.8-0.9,1.4-1.2
				c0.5-0.4,1-0.7,1.5-1.1c0.5-0.3,1-0.5,1.5-0.8c0.6-0.3,1-0.4,1.4-0.5l1.3-0.4c0.8-0.2,1.6-0.4,2.5-0.6l2.4-0.4l2.4-0.3
				c3.2-0.3,6.2-0.4,9.4-0.3c1.6,0,3.1,0.2,4.6,0.3c1.5,0.2,3.1,0.3,4.6,0.6c12.2,1.9,23.9,6.4,34.3,13c10.3,6.6,19.5,15.3,26,25.9
				c3.3,5.3,5.7,11.1,7.4,17.1c0.7,3,1.4,6.1,1.7,9.2c0.1,1.6,0.4,3.1,0.4,4.7l0,4.7c-0.3,6.3-1.8,12.7-4.8,18.4
				c-3,5.7-7.4,10.6-12.5,14.3c-5.1,3.7-10.8,6.4-16.6,8.3c-5.8,1.9-11.8,3.1-17.9,3.9c-12,1.4-24.2,1-36-0.9
				C435.7,201.4,423.9,198.2,413.1,192.5z"/>
		</g>
	</g>
</g>
<g id="text__x28_path_x29_">
	<g>
		<path fill="#FFFFFF" d="M3.8,296.7c-0.9-0.6-1.1-1.3-0.8-2.1c0.3-0.8,1.1-1.8,2.2-2.8c1.2-1.1,2.5-2.3,3.9-3.6
			c0-3.2-0.3-6.3-0.9-9.3c-0.6-3-1.2-6.1-2-9.1c-0.7-3-1.4-6-2-9c-0.6-3-0.9-6.1-0.9-9.2c0-1.9,0.4-3.1,1.1-3.8c0.8-0.6,2.1-1,4-1
			c1.1,0,1.8,0.2,2.2,0.6c0.4,0.4,0.7,0.9,0.9,1.4c0.1,0.6,0.2,1.2,0.3,1.9c0,0.7,0.1,1.3,0.3,1.9c0.2,0.6,0.5,1.1,1.1,1.4
			c0.5,0.4,1.3,0.6,2.5,0.6c4.9-0.1,9.8-0.5,14.7-1.2c4.9-0.8,9.8-1.5,14.7-2.3c4.9-0.8,9.8-1.4,14.7-2c4.9-0.5,9.9-0.6,14.9-0.2
			c0.1,1.4,0.2,2.6,0.4,3.6c0.2,1,0.3,1.9,0.3,2.5c0,0.7-0.3,1.1-0.7,1.4c-0.5,0.2-1.4,0.2-2.8,0c-1.5,0.1-3.4,0.1-5.9,0.2
			c-2.4,0.1-5.1,0.2-8.1,0.4c-3,0.1-6.1,0.3-9.4,0.5c-3.3,0.2-6.6,0.5-9.8,0.7c-3.2,0.3-6.3,0.6-9.2,1.1c-2.9,0.4-5.5,0.9-7.7,1.4
			c-2.2,0.6-4,1.2-5.4,1.8c-1.4,0.7-2,1.4-2,2.3c0,0.4,0,1.2,0.1,2.4c0.1,1.2,0.1,2.5,0.3,4c0.1,1.5,0.3,3,0.5,4.6
			c0.2,1.6,0.4,3.1,0.7,4.4c0.3,1.3,0.6,2.4,0.9,3.3c0.4,0.9,0.7,1.3,1.1,1.3c4.2,0,8.4-0.4,12.7-1.1c4.3-0.7,8.6-1.5,12.9-2.4
			s8.6-1.7,12.9-2.4c4.3-0.7,8.5-1.1,12.8-1.1c0.1,0,0.2,0.3,0.1,0.8c0,0.5-0.1,1.1-0.1,1.8c-0.1,0.7-0.1,1.3-0.1,1.8
			c0,0.6,0,0.8,0.1,0.8c-1.8,1-4.3,1.8-7.3,2.5c-3.1,0.7-6.4,1.3-9.9,1.8c-3.6,0.5-7.2,1-11,1.4c-3.7,0.4-7.2,0.9-10.3,1.4
			c-3.2,0.5-5.9,1.1-8.2,1.7c-2.3,0.6-3.8,1.4-4.4,2.4l-1.2,27.4c-0.5,0.5-1,0.8-1.6,0.9c-0.6,0.1-1.3,0.2-1.9,0.2
			c-0.7,0-1.4-0.1-2.1-0.1c-0.7-0.1-1.5-0.1-2.2-0.1v-24.7C6.4,297.8,4.7,297.3,3.8,296.7z"/>
		<path fill="#FFFFFF" d="M79.3,255.8c0-1.3,0.4-2.3,1.1-2.9c0.8-0.6,1.7-0.9,2.7-1c1.1-0.1,2.1,0,3.2,0.3c1.1,0.3,1.8,0.6,2.3,1.1
			c0.5,1.9,0.4,3.3-0.3,4.2c-0.7,0.9-1.6,1.4-2.8,1.4c-1.1,0.1-2.3-0.2-3.6-0.7C80.8,257.6,79.9,256.8,79.3,255.8z M89.5,270.7
			c0.5,7.2,1,14.9,1.4,23c0.4,8.1,0.8,16.3,1.1,24.5c-0.3,1.2-0.9,2-1.8,2.5c-0.9,0.5-1.9,0.8-2.9,0.8c-1.1,0-2-0.1-2.9-0.5
			c-0.9-0.4-1.5-0.8-1.7-1.4v-49H89.5z"/>
		<path fill="#FFFFFF" d="M100.4,316.1c5.3-0.4,10.1-1.1,14.4-2.2c4.3-1.1,7.9-2.3,10.9-3.6c3-1.4,5.2-2.8,6.6-4.4
			c1.5-1.6,2-3.1,1.6-4.6c-0.5-1.6-2.8-2.3-7-2.1c-4.2,0.2-10.4,1.2-18.6,2.8c-2.4-0.2-4.5-0.7-6.3-1.7c-1.8-0.9-3.2-2.1-4.3-3.4
			c-1.1-1.3-1.7-2.7-2-4.2c-0.3-1.5-0.2-2.8,0.3-3.9c0-1.9,0.6-3.8,1.7-5.7s2.7-3.5,4.7-5.1c2-1.6,4.3-3,6.9-4.2
			c2.6-1.3,5.4-2.3,8.4-3c3-0.7,6.1-1.2,9.2-1.4c3.2-0.2,6.3,0,9.4,0.6c1.5,0.7,2.8,1.5,3.7,2.4c1,0.9,1.6,1.8,2,2.7
			c0.4,0.9,0.4,1.8,0,2.6c-0.4,0.8-1.1,1.5-2.2,2.1c-2.4-1.1-4.9-1.8-7.6-2.3c-2.7-0.5-5.3-0.7-8-0.6c-2.6,0.1-5.2,0.5-7.6,1.2
			c-2.4,0.7-4.6,1.6-6.4,2.8c-1.8,1.2-3.4,2.7-4.5,4.4c-1.2,1.8-1.8,3.7-1.8,6c0,1.2,0.5,2,1.5,2.4c1,0.4,2.1,0.6,3.4,0.5
			c1.3,0,2.7-0.2,4.1-0.4c1.4-0.3,2.6-0.4,3.5-0.4c5.8-0.8,10.6-1.1,14.4-0.7c3.8,0.4,6.7,1.1,8.7,2.3c2,1.2,3.2,2.6,3.5,4.4
			s0,3.6-1,5.7c-1,2-2.7,4.1-5,6.1c-2.3,2-5.1,3.9-8.4,5.6c-3.3,1.7-7,3.1-11.1,4.3s-8.6,1.8-13.2,2.1c-1.1,0.4-2,0.4-2.8-0.2
			c-0.7-0.5-1.3-1.2-1.6-2.1c-0.4-0.9-0.5-1.8-0.4-2.8C99.5,317.3,99.8,316.6,100.4,316.1z"/>
		<path fill="#FFFFFF" d="M190.3,320.2c0-1.9,0-4.1-0.1-6.5c-0.1-2.5-0.2-5.1-0.4-7.8c-0.2-2.7-0.5-5.4-1-8.1
			c-0.4-2.7-1-5.2-1.7-7.4c-0.7-2.2-1.6-4.1-2.6-5.7c-1-1.6-2.3-2.6-3.7-3c-3.3-0.6-6.4-0.6-9.4,0.2c-3,0.8-5.5,2.6-7.7,5.6
			c-2.1,3-3.8,7.2-5,12.6c-1.2,5.4-1.6,12.5-1.3,21.3c-0.7,0.3-1.4,0.6-2.2,0.8c-0.7,0.2-1.5,0.4-2.3,0.4c-0.8,0.1-1.6,0-2.4-0.1
			c-0.8-0.1-1.6-0.5-2.5-0.9c0.2-7.7,0.3-14.9,0.1-21.8c-0.1-6.9-0.3-13.3-0.5-19.2c-0.2-6-0.3-11.5-0.2-16.6
			c0-5.1,0.3-9.6,0.9-13.7c0.6-1.2,1.4-2,2.3-2.5c1-0.5,1.9-0.8,2.9-0.8c1,0,1.8,0.3,2.6,0.8c0.7,0.5,1.1,1.3,1.2,2.2
			c-0.1,0.6-0.1,1.7-0.3,3.2c-0.1,1.5-0.2,3.2-0.4,5.3c-0.1,2-0.2,4.2-0.3,6.5c-0.1,2.3-0.1,4.7-0.2,7c0,2.3,0,4.5,0.1,6.6
			c0.1,2.1,0.3,3.9,0.6,5.4c1.4-1.4,2.9-2.9,4.4-4.4c1.6-1.6,3.3-2.9,5.4-4c2-1.1,4.4-1.9,7-2.4c2.7-0.4,5.9-0.3,9.5,0.5
			c2.5,0.6,4.7,1.9,6.4,3.8c1.8,2,3.2,4.3,4.3,7.1c1.1,2.8,2,5.8,2.6,9.1c0.6,3.3,1.1,6.6,1.5,9.9c0.3,3.3,0.5,6.5,0.6,9.5
			c0.1,3,0.2,5.6,0.3,7.8c-0.3,0.5-0.9,1-1.9,1.4c-1,0.4-2,0.6-3,0.7c-1,0.1-2-0.1-2.8-0.5C190.7,321.9,190.3,321.2,190.3,320.2z"/>
		<path fill="#FFFFFF" d="M203,255.8c0-1.3,0.4-2.3,1.1-2.9c0.8-0.6,1.7-0.9,2.7-1c1.1-0.1,2.1,0,3.2,0.3c1.1,0.3,1.8,0.6,2.3,1.1
			c0.5,1.9,0.4,3.3-0.3,4.2c-0.7,0.9-1.6,1.4-2.8,1.4c-1.1,0.1-2.3-0.2-3.6-0.7C204.5,257.6,203.6,256.8,203,255.8z M213.2,270.7
			c0.5,7.2,1,14.9,1.4,23c0.4,8.1,0.8,16.3,1.1,24.5c-0.3,1.2-0.9,2-1.8,2.5c-0.9,0.5-1.9,0.8-2.9,0.8c-1.1,0-2-0.1-2.9-0.5
			c-0.9-0.4-1.5-0.8-1.7-1.4v-49H213.2z"/>
		<path fill="#FFFFFF" d="M225.7,322.4c-0.6,0.2-1.4,0.4-2.2,0.4c-0.9,0-1.7-0.1-2.5-0.4c-0.8-0.2-1.5-0.6-2-1.2l-0.2-49.9
			c2.2-1.3,3.8-1.8,4.9-1.5c1.1,0.3,1.9,1,2.3,2.2c0.5,1.2,0.8,2.7,0.9,4.4c0.1,1.7,0.3,3.4,0.5,5c6-4.4,11.3-7.5,15.7-9.4
			c4.4-1.9,8.1-2.9,11.1-2.9c3,0,5.5,0.8,7.3,2.5c1.8,1.6,3.3,3.9,4.4,6.6c1.1,2.8,1.8,6,2.2,9.6c0.4,3.6,0.7,7.3,0.8,11.2
			c0.1,3.9,0.2,7.8,0.2,11.7c0,3.9,0.2,7.6,0.5,11c-0.8,0.7-1.7,1.1-2.9,1.2c-1.2,0.1-2.3,0.1-3.3-0.1c-1-0.1-1.8-0.3-2.3-0.6
			c-0.5-0.2-0.5-0.3,0-0.3c-0.2-1.5-0.3-3.4-0.4-5.8c-0.1-2.3-0.1-4.8-0.1-7.5c0-2.7,0-5.4,0-8.3c0-2.8,0-5.5-0.1-8.1
			c-0.1-2.6-0.2-4.9-0.4-7c-0.2-2.1-0.5-3.8-0.9-5.1c-0.5-1.1-1.3-1.9-2.6-2.4c-1.3-0.5-2.8-0.7-4.6-0.6c-1.8,0.1-3.8,0.4-5.9,1.1
			c-2.1,0.6-4.3,1.4-6.5,2.5s-4.3,2.3-6.4,3.8c-2.1,1.5-3.9,3.1-5.5,5l-0.7,31.8C226.8,321.8,226.4,322.1,225.7,322.4z"/>
		<path fill="#FFFFFF" d="M303.1,356.8c3.5-0.6,6.3-2.1,8.4-4.3c2.1-2.3,3.8-5,5.1-8.2c1.2-3.2,2.1-6.6,2.5-10.4
			c0.4-3.7,0.7-7.4,0.7-11.1c0.1-3.7,0-7.1-0.2-10.3c-0.2-3.2-0.3-5.9-0.4-8.1c-2.1,1.9-4.5,4-7.3,6.1c-2.7,2.1-5.7,4.1-8.9,5.8
			c-3.2,1.7-6.6,3-10.3,4c-3.7,1-7.5,1.3-11.6,1.1c-2.2,0-3.9-0.5-5.3-1.6c-1.4-1.1-2-2.7-2-4.9c0.1-2.5,0.7-5.3,1.8-8.5
			c1.1-3.1,2.6-6.3,4.4-9.6c1.8-3.2,3.9-6.4,6.3-9.5c2.4-3.1,5-5.9,7.7-8.4c2.7-2.5,5.5-4.5,8.4-6.1c2.9-1.6,5.7-2.5,8.5-2.8
			c2.8-0.3,5.5,0.3,8.1,1.7c2.6,1.4,4.9,3.8,7,7.2c1.4,11.1,2.3,20.7,2.6,29c0.3,8.3,0.1,15.4-0.4,21.4c-0.6,6-1.5,11-2.8,15
			c-1.3,4-2.8,7.3-4.6,9.8s-3.7,4.5-5.8,5.8c-2.1,1.3-4.2,2.4-6.4,3c-2.1,0.7-4.3,1.1-6.3,1.4c-2.1,0.3-4,0.6-5.8,1
			c-2.7,0.1-5.1,0.2-7.2,0.1c-2.1,0-3.8-0.3-5.2-0.7c-1.4-0.4-2.3-1.2-2.9-2.2c-0.6-1-0.6-2.4-0.1-4.2L303.1,356.8z M311.3,278.5
			c-1.7,0-3.5,0.4-5.3,1.3c-1.8,0.9-3.7,2-5.5,3.5c-1.8,1.5-3.6,3.1-5.3,5c-1.7,1.9-3.3,3.9-4.8,5.9c-1.4,2-2.7,4.1-3.8,6.1
			c-1.1,2-2,4-2.6,5.8c-0.6,1.8-1,3.4-1,4.7c-0.1,1.3,0.3,2.3,1,3c1.1,0.8,2.7,1.1,4.9,0.8c2.2-0.3,4.7-1,7.4-2.2
			c2.7-1.2,5.4-2.8,8.2-4.7c2.8-2,5.3-4.2,7.5-6.8c2.2-2.6,3.9-5.4,5.1-8.4c1.2-3,1.6-6.2,1.1-9.6c0-0.9-0.2-1.6-0.6-2.2
			c-0.4-0.6-0.9-1.1-1.5-1.4c-0.6-0.4-1.4-0.6-2.2-0.7C313,278.6,312.1,278.5,311.3,278.5z"/>
		<path fill="#FFFFFF" d="M378.1,292.4c0-6.6,1.1-12.6,3.3-18.2c2.2-5.6,5.2-10.4,9-14.5c3.8-4.1,8.3-7.3,13.5-9.6
			c5.2-2.3,10.7-3.5,16.6-3.5c2.4,0,4.4,0.1,6,0.4c1.6,0.3,2.9,0.9,3.9,1.8c1,0.9,1.7,2.3,2.2,4c0.4,1.7,0.7,4,0.7,6.9
			c-3.4-3.2-7-5.1-10.9-5.9c-3.8-0.8-7.6-0.6-11.3,0.5c-3.7,1.1-7.2,2.9-10.5,5.5c-3.3,2.6-6.2,5.6-8.6,9.1
			c-2.4,3.5-4.2,7.3-5.5,11.3c-1.3,4.1-1.7,8.1-1.3,12.1c0.8,4.2,1.9,7.7,3.5,10.5c1.6,2.8,3.5,5.1,5.9,6.9c2.3,1.7,5,3,7.9,3.7
			c3,0.7,6.2,1.1,9.6,1.1c4.3-0.4,8.1-1.1,11.4-2.4c3.3-1.2,6.2-2.7,9-4.4c2.7-1.7,5.3-3.6,7.8-5.6c2.5-2,5.1-4,7.9-5.9
			c0.5,0,1.1,0,1.6,0.1c0.6,0.1,1.1,0.2,1.5,0.4c0.5,0.2,0.8,0.5,1.1,1c0.3,0.4,0.4,1,0.4,1.7c-2.9,2.8-6.1,5.6-9.5,8.4
			c-3.4,2.8-7,5.3-10.7,7.5c-3.8,2.2-7.7,4-11.9,5.3c-4.1,1.3-8.4,1.9-12.7,1.7c-3.9,0-7.6-0.7-11.2-2.2c-3.6-1.4-6.8-3.5-9.6-6.1
			c-2.8-2.6-5.1-5.8-6.7-9.4C378.9,300.9,378.1,296.9,378.1,292.4z"/>
		<path fill="#FFFFFF" d="M501.2,320.2c0-1.9,0-4.1-0.1-6.5c-0.1-2.5-0.2-5.1-0.4-7.8c-0.2-2.7-0.5-5.4-1-8.1
			c-0.4-2.7-1-5.2-1.7-7.4c-0.7-2.2-1.6-4.1-2.6-5.7c-1-1.6-2.3-2.6-3.7-3c-3.3-0.6-6.4-0.6-9.4,0.2c-3,0.8-5.5,2.6-7.7,5.6
			c-2.1,3-3.8,7.2-5,12.6c-1.2,5.4-1.6,12.5-1.3,21.3c-0.7,0.3-1.4,0.6-2.2,0.8c-0.7,0.2-1.5,0.4-2.3,0.4c-0.8,0.1-1.6,0-2.4-0.1
			c-0.8-0.1-1.6-0.5-2.5-0.9c0.2-7.7,0.3-14.9,0.1-21.8c-0.1-6.9-0.3-13.3-0.5-19.2s-0.3-11.5-0.2-16.6c0-5.1,0.3-9.6,0.9-13.7
			c0.6-1.2,1.4-2,2.3-2.5c1-0.5,1.9-0.8,2.9-0.8c1,0,1.8,0.3,2.6,0.8c0.7,0.5,1.1,1.3,1.2,2.2c-0.1,0.6-0.1,1.7-0.3,3.2
			c-0.1,1.5-0.2,3.2-0.4,5.3c-0.1,2-0.2,4.2-0.3,6.5c-0.1,2.3-0.1,4.7-0.2,7c0,2.3,0,4.5,0.1,6.6s0.3,3.9,0.6,5.4
			c1.4-1.4,2.9-2.9,4.4-4.4c1.6-1.6,3.3-2.9,5.4-4c2-1.1,4.4-1.9,7-2.4c2.7-0.4,5.9-0.3,9.5,0.5c2.5,0.6,4.7,1.9,6.4,3.8
			c1.8,2,3.2,4.3,4.3,7.1c1.1,2.8,2,5.8,2.6,9.1c0.6,3.3,1.1,6.6,1.5,9.9c0.3,3.3,0.5,6.5,0.6,9.5c0.1,3,0.2,5.6,0.3,7.8
			c-0.3,0.5-0.9,1-1.9,1.4c-1,0.4-2,0.6-3,0.7c-1,0.1-2-0.1-2.8-0.5C501.6,321.9,501.2,321.2,501.2,320.2z"/>
		<path fill="#FFFFFF" d="M557.4,304.1c-1.7,2.6-3.7,5-5.9,7.2c-2.2,2.1-4.7,4-7.3,5.4c-2.7,1.5-5.6,2.6-8.7,3.3
			c-3.1,0.7-6.4,0.9-9.9,0.6c-1.2,0-2.6-0.1-4-0.4c-1.4-0.3-2.7-0.8-3.9-1.4c-1.2-0.6-2.2-1.5-2.9-2.5c-0.8-1.1-1.1-2.4-1.1-4
			c-0.6-3.3-0.5-6.7,0.5-10.2c1-3.5,2.5-7,4.5-10.4c2-3.4,4.5-6.5,7.4-9.5c2.9-3,6-5.5,9.3-7.6c3.3-2.1,6.6-3.6,10.1-4.6
			c3.4-1,6.7-1.2,9.9-0.6c2.4,0,4.3,0.8,5.6,2.4c1.3,1.6,2.3,3.7,3,6.4c0.7,2.7,1.1,5.7,1.2,9.2c0.1,3.5,0.2,7.1,0.3,10.9
			c0,3.8,0.1,7.6,0.2,11.3c0.1,3.8,0.4,7.3,1,10.5c-0.1,0.1-0.3,0.5-0.8,1.1c-0.5,0.6-1.1,1.1-1.9,1.4c-0.8,0.4-1.6,0.4-2.6,0.2
			c-1-0.2-1.9-1-2.9-2.5c-0.4-0.6-0.6-1.6-0.7-3.1s-0.1-3.1-0.1-4.8c0-1.7,0.1-3.3,0.1-4.9C557.7,305.9,557.6,304.8,557.4,304.1z
			 M551.9,277.4c-2.3-0.2-4.7,0.2-7.1,1.1c-2.5,0.9-4.9,2.1-7.2,3.7c-2.3,1.6-4.5,3.5-6.6,5.6c-2.1,2.1-3.8,4.4-5.4,6.7
			c-1.5,2.3-2.7,4.6-3.6,6.9c-0.9,2.3-1.2,4.4-1.1,6.3c0.1,1.9,0.7,3.5,1.8,4.8c1.1,1.3,2.9,2.2,5.4,2.6c3.4,0.1,6.7-0.8,9.8-2.6
			c3.1-1.8,5.9-4,8.4-6.7c2.5-2.7,4.6-5.6,6.4-8.8c1.7-3.2,2.9-6.2,3.5-9c0.6-2.8,0.6-5.2,0-7.2
			C555.6,278.8,554.2,277.7,551.9,277.4z"/>
		<path fill="#FFFFFF" d="M571.2,270c0.1-1.1,0.6-1.8,1.4-2.1c0.8-0.3,1.7-0.3,2.6-0.2c1.5,0.2,2.7,1,3.4,2.3
			c0.8,1.4,1.3,2.9,1.6,4.6c0.3,1.7,0.4,3.4,0.4,5c0,1.6,0,2.8,0.1,3.5c1.6-1.4,3.5-3,5.5-4.8c2-1.8,4.5-3.5,7.4-5
			c2.9-1.5,6.4-2.6,10.5-3.4c4.1-0.8,9-0.8,14.7-0.1c1.4,0.4,2.4,1,3.1,2c0.7,1,1,2,1.1,3.1c0,1.1-0.3,2.1-0.9,3
			c-0.6,0.9-1.5,1.4-2.6,1.5c-1.4-1.1-3.3-1.7-5.6-1.8c-2.3-0.2-4.9,0-7.7,0.6c-2.8,0.6-5.6,1.5-8.5,2.8c-2.9,1.3-5.5,2.9-8,4.8
			c-2.4,1.9-4.5,4.2-6.2,6.7c-1.7,2.5-2.8,5.3-3.2,8.3V320c-0.1,0.3-0.6,0.7-1.4,1.3c-0.8,0.6-1.7,1-2.8,1.2c-1,0.3-2.1,0.2-3.1,0
			c-1-0.3-1.8-1.1-2.3-2.5c0-0.4,0-1.7,0-3.9s0-4.9,0-8c0-3.1,0.1-6.6,0.1-10.3c0.1-3.7,0.1-7.4,0.1-10.9c0-3.6,0.1-6.9,0.1-9.8
			C571.1,274,571.2,271.7,571.2,270z"/>
		<path fill="#FFFFFF" d="M624.2,283.3c-0.4-0.8-0.6-1.7-0.4-2.5c0.2-0.8,0.6-1.6,1.1-2.2c0.6-0.6,1.2-1,1.8-1.1h16.5l-0.4-27.4
			c0.2-0.7,0.7-1.3,1.5-1.8c0.8-0.5,1.6-0.7,2.5-0.8c0.9-0.1,1.8,0,2.6,0.4c0.9,0.3,1.6,0.9,2.1,1.8l0.8,27.4l15.6-0.4
			c1.1,0.6,1.8,1.3,2.2,2.2c0.4,0.8,0.5,1.7,0.5,2.5c-0.1,0.8-0.3,1.5-0.7,2.1c-0.4,0.6-0.8,1-1.3,1.1l-16.3,0.4
			c-0.1,3.6,0,6.9,0.1,9.8c0.1,2.9,0.3,5.7,0.5,8.4c0.2,2.7,0.4,5.5,0.5,8.4c0.1,2.9,0.2,6.1,0.2,9.7c-1.7,1.2-3.4,1.7-5.2,1.7
			c-1.8-0.1-3-0.8-3.6-2.2l-1-35.7h-17.1C625.5,284.7,624.6,284.1,624.2,283.3z"/>
		<path fill="#FFFFFF" d="M672.6,307.9c-0.5-4.7-0.1-9.5,1.2-14.2c1.3-4.7,3.4-8.9,6.3-12.6c2.8-3.7,6.3-6.7,10.3-9
			c4-2.3,8.5-3.3,13.4-3.2c2-0.1,4.3,0.4,6.9,1.3c2.6,0.9,5,2.2,7.1,3.9c2.2,1.7,3.9,3.6,5.2,5.8s1.7,4.5,1.3,7
			c0.1,1.2-0.6,2.2-1.8,3c-1.3,0.8-3,1.4-5.1,1.9c-2.1,0.5-4.6,0.8-7.5,1c-2.8,0.2-5.8,0.4-9,0.5c-3.1,0.1-6.3,0.2-9.5,0.3
			c-3.2,0.1-6.3,0.2-9.2,0.5c-1.6,4.5-2.1,8.2-1.5,11.1c0.7,2.9,2.1,5.1,4.3,6.6c2.2,1.5,4.9,2.4,8.2,2.7c3.3,0.3,6.6,0,10.2-0.7
			s7-1.8,10.4-3.4c3.4-1.6,6.3-3.4,8.8-5.6c0.4,0,0.8,0.1,1.4,0.4c0.6,0.2,1.1,0.5,1.6,0.9c0.5,0.4,1,0.8,1.4,1.2
			c0.4,0.4,0.6,0.8,0.6,1.2c-1.5,2.5-3.7,4.8-6.7,6.8c-3,2-6.4,3.6-10.1,4.8c-3.8,1.2-7.7,2-11.7,2.3c-4.1,0.3-7.9,0-11.5-0.9
			c-3.6-0.9-6.7-2.4-9.4-4.7C675.4,314.7,673.6,311.7,672.6,307.9z M714.7,284.4c-0.3-2.2-1.2-3.9-2.6-5c-1.5-1.1-3.2-1.8-5.2-2.2
			c-2-0.3-4.1-0.3-6.3,0.1c-2.2,0.4-4.3,1-6.2,1.8c-1.9,0.8-3.5,1.8-4.8,2.9c-1.3,1.1-1.9,2.2-2,3.3L714.7,284.4z"/>
		<path fill="#FFFFFF" d="M731,270c0.1-1.1,0.6-1.8,1.4-2.1c0.8-0.3,1.7-0.3,2.6-0.2c1.5,0.2,2.7,1,3.4,2.3c0.8,1.4,1.3,2.9,1.6,4.6
			c0.3,1.7,0.4,3.4,0.4,5c0,1.6,0,2.8,0.1,3.5c1.6-1.4,3.5-3,5.5-4.8c2-1.8,4.5-3.5,7.4-5c2.9-1.5,6.4-2.6,10.5-3.4
			c4.1-0.8,9-0.8,14.7-0.1c1.4,0.4,2.4,1,3.1,2c0.7,1,1,2,1.1,3.1c0,1.1-0.3,2.1-0.9,3c-0.6,0.9-1.5,1.4-2.6,1.5
			c-1.4-1.1-3.3-1.7-5.6-1.8c-2.3-0.2-4.9,0-7.7,0.6c-2.8,0.6-5.6,1.5-8.5,2.8c-2.9,1.3-5.5,2.9-8,4.8c-2.4,1.9-4.5,4.2-6.2,6.7
			c-1.7,2.5-2.8,5.3-3.2,8.3V320c-0.1,0.3-0.6,0.7-1.4,1.3c-0.8,0.6-1.7,1-2.8,1.2c-1,0.3-2.1,0.2-3.1,0c-1-0.3-1.8-1.1-2.3-2.5
			c0-0.4,0-1.7,0-3.9s0-4.9,0-8c0-3.1,0.1-6.6,0.1-10.3c0.1-3.7,0.1-7.4,0.1-10.9c0-3.6,0.1-6.9,0.1-9.8C731,274,731,271.7,731,270z
			"/>
		<path fill="#FFFFFF" d="M788.4,316.1c5.3-0.4,10.1-1.1,14.4-2.2c4.3-1.1,7.9-2.3,10.9-3.6c3-1.4,5.2-2.8,6.6-4.4
			c1.5-1.6,2-3.1,1.6-4.6c-0.5-1.6-2.8-2.3-7-2.1c-4.2,0.2-10.4,1.2-18.6,2.8c-2.4-0.2-4.5-0.7-6.3-1.7c-1.8-0.9-3.2-2.1-4.3-3.4
			c-1.1-1.3-1.7-2.7-2-4.2c-0.3-1.5-0.2-2.8,0.3-3.9c0-1.9,0.6-3.8,1.7-5.7s2.7-3.5,4.7-5.1c2-1.6,4.3-3,6.9-4.2
			c2.6-1.3,5.4-2.3,8.4-3c3-0.7,6.1-1.2,9.2-1.4c3.2-0.2,6.3,0,9.4,0.6c1.5,0.7,2.8,1.5,3.7,2.4c1,0.9,1.6,1.8,2,2.7
			c0.4,0.9,0.4,1.8,0,2.6c-0.4,0.8-1.1,1.5-2.2,2.1c-2.4-1.1-4.9-1.8-7.6-2.3c-2.7-0.5-5.3-0.7-8-0.6c-2.6,0.1-5.2,0.5-7.6,1.2
			c-2.4,0.7-4.6,1.6-6.4,2.8c-1.8,1.2-3.4,2.7-4.5,4.4c-1.2,1.8-1.8,3.7-1.8,6c0,1.2,0.5,2,1.5,2.4c1,0.4,2.1,0.6,3.4,0.5
			c1.3,0,2.7-0.2,4.1-0.4c1.4-0.3,2.6-0.4,3.5-0.4c5.8-0.8,10.6-1.1,14.4-0.7s6.7,1.1,8.7,2.3c2,1.2,3.2,2.6,3.5,4.4s0,3.6-1,5.7
			c-1,2-2.7,4.1-5,6.1c-2.3,2-5.1,3.9-8.4,5.6c-3.3,1.7-7,3.1-11.1,4.3c-4.1,1.1-8.6,1.8-13.2,2.1c-1.1,0.4-2,0.4-2.8-0.2
			c-0.7-0.5-1.3-1.2-1.6-2.1c-0.4-0.9-0.5-1.8-0.4-2.8C787.4,317.3,787.8,316.6,788.4,316.1z"/>
	</g>
</g>
</svg>
