<?xml version="1.0" encoding="utf-8"?>
<!-- Generator: Adobe Illustrator 19.1.0, SVG Export Plug-In . SVG Version: 6.00 Build 0)  -->
<svg version="1.1" xmlns="http://www.w3.org/2000/svg" xmlns:xlink="http://www.w3.org/1999/xlink" x="0px" y="0px"
	 viewBox="0 0 1490.6 219.5" enable-background="new 0 0 1490.6 219.5" xml:space="preserve">
<g id="logo_copy">
	<path fill="#FFFFFF" d="M112.8,29.3l-24.2,6.1c-1.3,0.3-2.6-0.5-3-1.8L85,31c-0.3-1.3,0.5-2.6,1.8-3L111,22c1.3-0.3,2.6,0.5,3,1.8
		l0.6,2.5C114.9,27.6,114.1,28.9,112.8,29.3z"/>
	<path fill="#FFFFFF" d="M114.1,37.4l-24.2,6.1c-1.3,0.3-2.6-0.5-3-1.8l-0.6-2.5c-0.3-1.3,0.5-2.6,1.8-3l24.2-6.1
		c1.3-0.3,2.6,0.5,3,1.8l0.6,2.5C116.2,35.7,115.4,37,114.1,37.4z"/>
	<path fill="#FFFFFF" d="M115.4,45.5l-24.2,6.1c-1.3,0.3-2.6-0.5-3-1.8l-0.6-2.5c-0.3-1.3,0.5-2.6,1.8-3l24.2-6.1
		c1.3-0.3,2.6,0.5,3,1.8l0.6,2.5C117.5,43.8,116.7,45.1,115.4,45.5z"/>
	<path fill="#FFFFFF" d="M116.7,53.6l-24.2,6.1c-1.3,0.3-2.6-0.5-3-1.8l-0.6-2.5c-0.3-1.3,0.5-2.6,1.8-3l24.2-6.1
		c1.3-0.3,2.6,0.5,3,1.8l0.6,2.5C118.8,51.9,118,53.2,116.7,53.6z"/>
	<path fill="#FFFFFF" d="M97.3,53.2c1.1,7,2,14,2.6,20.9c2.8,36.2-2.8,68-16.2,91.8c-12.9,22.7-30,37.4-46,39.3
		c-4.9,0.6-9.4-0.2-13-2.2c-14.5-7.9-11.4-30.6-3.6-49.7l10.3,19.1l-1.8-12.8c-3.1-22.8-0.1-40.9-0.1-41.1l2-12l-18.3,29.9
		c-23.2,43.9-12,70,4.6,79.1c4.9,2.7,10.5,4,16.5,4c1.6,0,3.2-0.1,4.9-0.3c5.9-0.7,12-2.6,18-5.7c14.7-7.6,28.1-21.7,38.9-40.7
		c19.2-33.9,22.2-79,15.4-121.7C106.7,51.8,102,52.5,97.3,53.2z"/>
	<path fill="#FFFFFF" d="M100.2,6.7C98.8,3,94.7,1.1,91,2.5c-1.8,0.7-3.2,2-4,3.7c-0.8,1.7-0.9,3.7-0.2,5.5
		c4.9,13.2,8.7,27.8,11.3,42.8c1.3-0.8,3-1,4.7-0.6c-2.6-15.4-6.5-30.3-11.6-43.9C91,9.4,91,8.8,91.3,8.2c0.3-0.6,0.8-1,1.4-1.3
		c0.6-0.2,1.3-0.2,1.9,0.1c0.6,0.3,1,0.8,1.3,1.4c5,13.4,9,28.3,11.7,44c1.3-0.8,3-1.1,4.6-0.7C109.4,35.7,105.3,20.4,100.2,6.7z"/>
	<g>
		<path fill="#FFFFFF" d="M114.5,192.5l2.5-4.6c10.1,5.2,21.5,8.2,32.9,9.9c11.4,1.7,23.1,2,34.4,0.5c5.7-0.7,11.3-1.9,16.6-3.8
			c5.3-1.8,10.4-4.3,14.8-7.6c4.4-3.3,8-7.4,10.5-12.2c2.5-4.8,3.7-10.2,3.9-15.7l-0.1-4.1c0-1.4-0.3-2.8-0.4-4.2
			c-0.2-2.8-0.9-5.5-1.6-8.2c-1.5-5.3-3.8-10.5-6.8-15.2c-5.9-9.5-14.4-17.4-23.9-23.3c-9.6-5.9-20.4-10-31.5-11.6
			c-1.4-0.2-2.8-0.3-4.2-0.5c-1.4-0.1-2.8-0.2-4.2-0.2c-2.8-0.1-5.6,0-8.3,0.3l-2,0.3l-1.9,0.4l-1.8,0.5l-0.8,0.3
			c-0.3,0.1-0.6,0.2-0.7,0.3l-0.5,0.2c-0.1,0.1-0.2,0.1-0.3,0.2c-0.2,0.1-0.3,0.3-0.4,0.4c-0.3,0.3-0.3,0.8-0.1,1.1
			c0.1,0.2,0.2,0.3,0.4,0.5c0.1,0.1,0.1,0.1,0.2,0.2l0.1,0.1l0.1,0l0.1,0.1l0.5,0.3l0.8,0.3c0.5,0.2,1.1,0.4,1.6,0.6
			c2.3,0.6,4.8,0.9,7.4,0.8c2.6-0.1,5.2-0.6,7.7-1.4c0.6-0.2,1.3-0.4,1.9-0.6c0.6-0.2,1.3-0.4,1.9-0.7l1.8-0.8l1.8-1
			c4.9-2.5,9.4-5.7,13.3-9.5c3.9-3.8,7.1-8.2,9.6-13c2.4-4.8,4-10,4.5-15.3c0.5-5.3,0.1-10.7-1.4-15.8
			c-2.8-10.2-10.1-18.8-19.4-23.9c-4.7-2.6-9.8-4.3-15.2-5.3c-1.3-0.3-2.7-0.5-4-0.6c-1.4-0.1-2.7-0.3-4.1-0.4
			c-2.8-0.2-5.6-0.2-8.5-0.2c-5.7,0.1-11.4,0.4-17.1,1.1c-5.6,0.7-11.2,1.7-16.3,3.4c-2.5,0.8-5,1.9-6.9,3.1c-1,0.6-1.8,1.3-2.6,2
			c-0.6,0.7-1.2,1.4-1.5,2c-0.1,0.2-0.1,0.3-0.2,0.5c0,0.2-0.1,0.3-0.1,0.5c0,0.2,0,0.3-0.1,0.5c0,0.1,0,0.2,0,0.3
			c0,0.5,0.3,1.5,0.8,2.6c0.9,2.2,2.3,4.5,3.8,6.8c3,4.6,6.6,9.2,10.2,13.7l5.5,6.9l2.8,3.5c0.9,1.2,1.9,2.4,2.9,3.9l-9.3,6
			c-0.6-1-1.5-2.1-2.3-3.2l-2.6-3.4l-5.5-6.9c-3.7-4.7-7.3-9.5-10.7-14.7c-1.7-2.6-3.3-5.4-4.6-8.7c-0.6-1.7-1.3-3.5-1.5-5.9
			c0-0.6,0-1.4,0-1.9c0.1-0.6,0.2-1.1,0.3-1.7c0.1-0.6,0.3-1.1,0.5-1.6c0.2-0.5,0.4-1.1,0.6-1.6c0.9-2.1,2.3-3.7,3.7-5.1
			c1.4-1.3,2.9-2.5,4.5-3.3c3-1.8,6.1-3,9.2-4c6.1-1.9,12.2-2.9,18.3-3.6c6.1-0.7,12.1-1,18.2-1c3,0,6.1,0.1,9.2,0.3
			c1.6,0.1,3.1,0.3,4.7,0.5c1.6,0.1,3.1,0.5,4.7,0.8c6.2,1.2,12.3,3.4,18,6.5c5.6,3.2,10.7,7.4,14.8,12.5l0.8,0.9l0.7,1l1.4,2
			c0.9,1.4,1.7,2.8,2.5,4.2c1.4,2.9,2.7,6,3.5,9.1c1.7,6.3,2.2,12.8,1.5,19.3c-0.8,6.4-2.7,12.7-5.6,18.4
			c-2.9,5.7-6.8,10.9-11.4,15.2c-4.6,4.4-9.9,8-15.4,10.8c-5.6,3-12,5-18.6,5.2c-3.3,0.1-6.7-0.2-10.1-1.2c-0.8-0.3-1.7-0.6-2.5-0.9
			l-1.3-0.6c-0.5-0.3-0.9-0.5-1.4-0.8c-2-1.3-4-3.3-4.7-5.5c-0.4-1.1-0.6-2.3-0.5-3.5c0.1-0.6,0.2-1.2,0.4-1.7l0.3-0.8
			c0.1-0.3,0.3-0.5,0.5-0.8l0.5-0.8c0.2-0.2,0.4-0.5,0.6-0.7c0.4-0.4,0.8-0.9,1.4-1.2c0.5-0.4,1-0.7,1.5-1.1c0.5-0.3,1-0.5,1.5-0.8
			c0.6-0.3,1-0.4,1.4-0.5l1.3-0.4c0.8-0.2,1.6-0.4,2.5-0.6l2.4-0.4l2.4-0.3c3.2-0.3,6.2-0.4,9.4-0.3c1.6,0,3.1,0.2,4.6,0.3
			c1.5,0.2,3.1,0.3,4.6,0.6c12.2,1.9,23.9,6.4,34.3,13c10.3,6.6,19.5,15.3,26,25.9c3.3,5.3,5.7,11.1,7.4,17.1c0.7,3,1.4,6.1,1.7,9.2
			c0.1,1.6,0.4,3.1,0.4,4.7l0,4.7c-0.3,6.3-1.8,12.7-4.8,18.4c-3,5.7-7.4,10.6-12.5,14.3c-5.1,3.7-10.8,6.4-16.6,8.3
			c-5.8,1.9-11.8,3.1-17.9,3.9c-12,1.4-24.2,1-36-0.9C137.1,201.4,125.4,198.2,114.5,192.5z"/>
	</g>
</g>
<g id="text__x28_path_x29_">
	<g>
		<path fill="#FFFFFF" d="M297.3,117.9c-1.2-0.8-1.6-1.9-1.1-3c0.5-1.2,1.5-2.5,3.2-4.1c1.7-1.5,3.6-3.3,5.6-5.2
			c0-4.6-0.4-9.1-1.3-13.5c-0.8-4.4-1.8-8.8-2.9-13.1c-1.1-4.4-2-8.7-2.9-13.1c-0.8-4.4-1.3-8.8-1.3-13.3c0-2.7,0.5-4.5,1.7-5.5
			c1.1-0.9,3-1.4,5.7-1.4c1.5,0,2.6,0.3,3.2,0.8c0.6,0.6,1.1,1.2,1.3,2.1c0.2,0.8,0.3,1.8,0.4,2.7c0,1,0.2,1.9,0.4,2.7
			c0.3,0.8,0.8,1.5,1.5,2.1c0.8,0.6,1.9,0.8,3.6,0.8c7.1-0.1,14.2-0.7,21.3-1.8c7.1-1.1,14.1-2.2,21.2-3.4
			c7.1-1.1,14.1-2.1,21.2-2.9c7.1-0.8,14.2-0.8,21.5-0.3c0.1,2,0.3,3.8,0.6,5.3c0.3,1.5,0.5,2.7,0.4,3.7c0,1-0.4,1.6-1.1,2
			c-0.7,0.3-2,0.3-4.1,0c-2.1,0.1-4.9,0.2-8.4,0.3c-3.5,0.1-7.4,0.3-11.7,0.5c-4.3,0.2-8.8,0.5-13.6,0.8c-4.8,0.3-9.5,0.7-14.2,1.1
			c-4.7,0.4-9.1,0.9-13.3,1.5c-4.2,0.6-8,1.3-11.2,2.1c-3.2,0.8-5.8,1.7-7.7,2.7c-1.9,1-2.9,2.1-2.9,3.4c0,0.6,0,1.7,0.1,3.4
			c0.1,1.7,0.2,3.6,0.4,5.7c0.2,2.1,0.4,4.3,0.7,6.7c0.3,2.3,0.6,4.4,1,6.3s0.8,3.5,1.3,4.8s1.1,1.9,1.7,1.9c6,0,12.1-0.5,18.3-1.5
			c6.2-1,12.4-2.2,18.6-3.4s12.4-2.4,18.6-3.4c6.2-1,12.3-1.5,18.4-1.5c0.2,0,0.2,0.4,0.2,1.1c0,0.8-0.1,1.6-0.2,2.6
			c-0.1,1-0.1,1.9-0.2,2.7c0,0.8,0,1.2,0.2,1.2c-2.6,1.4-6.1,2.7-10.5,3.7c-4.4,1-9.2,1.9-14.3,2.6c-5.2,0.7-10.4,1.4-15.8,2
			c-5.4,0.6-10.3,1.2-14.9,2c-4.6,0.7-8.5,1.5-11.8,2.5c-3.3,0.9-5.4,2.1-6.3,3.4l-1.8,39.6c-0.7,0.7-1.5,1.1-2.3,1.3
			c-0.9,0.2-1.8,0.3-2.8,0.3c-1,0-2-0.1-3-0.2c-1.1-0.1-2.1-0.1-3.1-0.1V120C301.1,119.5,298.6,118.8,297.3,117.9z"/>
		<path fill="#FFFFFF" d="M406.2,58.8c0-1.9,0.5-3.3,1.7-4.2c1.1-0.8,2.4-1.3,3.9-1.5s3,0,4.6,0.4c1.5,0.4,2.6,0.9,3.3,1.5
			c0.8,2.8,0.6,4.8-0.4,6.1s-2.3,2-4,2.1s-3.4-0.2-5.1-1.1C408.4,61.4,407.1,60.2,406.2,58.8z M420.9,80.4c0.8,10.4,1.4,21.5,2,33.2
			c0.6,11.7,1.1,23.5,1.5,35.5c-0.4,1.7-1.3,2.9-2.6,3.7c-1.3,0.8-2.7,1.2-4.3,1.2c-1.5,0-2.9-0.2-4.3-0.7c-1.3-0.5-2.1-1.2-2.5-2
			V80.4H420.9z"/>
		<path fill="#FFFFFF" d="M436.7,146c7.6-0.6,14.5-1.7,20.8-3.2c6.2-1.5,11.5-3.3,15.7-5.3c4.3-2,7.5-4.1,9.6-6.3
			c2.1-2.2,2.9-4.5,2.3-6.7c-0.7-2.4-4-3.4-10.1-3c-6.1,0.3-15,1.7-26.9,4.1c-3.5-0.3-6.5-1.1-9.1-2.4c-2.6-1.4-4.6-3-6.2-4.9
			s-2.5-3.9-2.9-6c-0.4-2.1-0.3-4,0.4-5.6c0-2.8,0.8-5.5,2.5-8.2s3.9-5.1,6.7-7.4c2.8-2.2,6.1-4.3,9.9-6.1c3.8-1.8,7.8-3.3,12.1-4.3
			c4.3-1.1,8.8-1.7,13.3-2s9.1,0,13.6,0.9c2.2,1,4,2.2,5.4,3.5c1.4,1.3,2.3,2.6,2.9,3.9c0.5,1.3,0.5,2.6,0,3.7
			c-0.5,1.2-1.6,2.2-3.2,3c-3.5-1.5-7.1-2.6-11-3.4c-3.9-0.7-7.7-1-11.5-0.8c-3.8,0.2-7.5,0.7-11,1.7c-3.5,1-6.6,2.3-9.3,4.1
			c-2.7,1.7-4.8,3.9-6.5,6.4c-1.7,2.5-2.6,5.4-2.7,8.6c0,1.8,0.7,2.9,2.1,3.5c1.4,0.6,3,0.8,5,0.8c1.9,0,3.9-0.3,6-0.6
			c2.1-0.4,3.7-0.6,5-0.6c8.4-1.2,15.3-1.5,20.8-1s9.6,1.6,12.5,3.3c2.9,1.7,4.6,3.8,5.1,6.3s0,5.3-1.5,8.2
			c-1.5,2.9-3.9,5.9-7.2,8.8c-3.3,3-7.3,5.7-12.1,8.1c-4.7,2.5-10.1,4.5-16.1,6.2s-12.3,2.6-19.1,3c-1.6,0.6-2.9,0.5-4-0.3
			c-1.1-0.8-1.8-1.8-2.3-3s-0.7-2.6-0.6-4S435.8,146.7,436.7,146z"/>
		<path fill="#FFFFFF" d="M566.4,151.8c0-2.7,0-5.9-0.1-9.5c-0.1-3.6-0.3-7.3-0.6-11.2c-0.3-3.9-0.8-7.8-1.4-11.7
			c-0.6-3.9-1.5-7.4-2.5-10.7c-1-3.2-2.3-5.9-3.7-8.2c-1.5-2.2-3.3-3.7-5.4-4.4c-4.7-0.9-9.2-0.8-13.5,0.3c-4.3,1.1-8,3.8-11,8.1
			c-3.1,4.3-5.5,10.3-7.2,18.2c-1.7,7.9-2.3,18.1-1.9,30.7c-1,0.4-2.1,0.8-3.1,1.1c-1.1,0.3-2.2,0.5-3.3,0.6c-1.1,0.1-2.3,0-3.4-0.2
			c-1.1-0.2-2.3-0.7-3.6-1.3c0.3-11.1,0.4-21.6,0.2-31.5c-0.2-9.9-0.4-19.2-0.7-27.8s-0.4-16.6-0.3-23.9c0-7.3,0.5-13.9,1.3-19.7
			c0.8-1.7,2-2.9,3.4-3.7c1.4-0.8,2.8-1.1,4.2-1.1s2.6,0.4,3.7,1.1c1.1,0.8,1.6,1.8,1.7,3.2c-0.1,0.9-0.2,2.5-0.4,4.6
			c-0.2,2.2-0.3,4.7-0.5,7.6c-0.2,2.9-0.3,6.1-0.4,9.5c-0.1,3.4-0.2,6.8-0.3,10.1c0,3.3,0,6.5,0.1,9.6s0.4,5.7,0.8,7.9
			c2-2,4.2-4.2,6.4-6.4c2.2-2.2,4.8-4.2,7.7-5.8s6.3-2.8,10.2-3.4c3.9-0.6,8.4-0.4,13.8,0.7c3.6,0.8,6.7,2.7,9.3,5.5
			c2.5,2.8,4.6,6.3,6.2,10.3c1.6,4,2.9,8.4,3.8,13.1c0.9,4.7,1.6,9.5,2.1,14.3c0.5,4.8,0.8,9.4,0.9,13.7c0.1,4.4,0.3,8.1,0.4,11.2
			c-0.4,0.8-1.3,1.4-2.7,2c-1.4,0.6-2.8,0.9-4.3,1c-1.5,0.1-2.8-0.2-4-0.8C567,154.4,566.4,153.4,566.4,151.8z"/>
		<path fill="#FFFFFF" d="M584.7,58.8c0-1.9,0.5-3.3,1.7-4.2c1.1-0.8,2.4-1.3,3.9-1.5s3,0,4.6,0.4c1.5,0.4,2.6,0.9,3.3,1.5
			c0.8,2.8,0.6,4.8-0.4,6.1s-2.3,2-4,2.1s-3.4-0.2-5.1-1.1C586.9,61.4,585.5,60.2,584.7,58.8z M599.4,80.4c0.8,10.4,1.4,21.5,2,33.2
			c0.6,11.7,1.1,23.5,1.5,35.5c-0.4,1.7-1.3,2.9-2.6,3.7c-1.3,0.8-2.7,1.2-4.3,1.2c-1.5,0-2.9-0.2-4.3-0.7c-1.3-0.5-2.1-1.2-2.5-2
			V80.4H599.4z"/>
		<path fill="#FFFFFF" d="M617.5,155c-0.9,0.3-2,0.5-3.2,0.5c-1.2,0-2.4-0.2-3.6-0.5c-1.2-0.3-2.2-0.9-2.9-1.8l-0.3-72.1
			c3.1-1.9,5.5-2.6,7-2.2c1.6,0.4,2.7,1.5,3.4,3.2c0.7,1.7,1.1,3.9,1.3,6.3c0.2,2.5,0.4,4.9,0.8,7.2c8.7-6.3,16.2-10.9,22.6-13.6
			c6.3-2.7,11.7-4.1,16.1-4.1c4.4,0,7.9,1.2,10.5,3.6c2.7,2.4,4.8,5.6,6.3,9.6c1.5,4,2.6,8.6,3.2,13.8c0.6,5.2,1,10.6,1.1,16.3
			c0.2,5.6,0.3,11.3,0.3,16.9c0,5.7,0.3,11,0.7,15.9c-1.1,1-2.5,1.6-4.2,1.7c-1.7,0.1-3.3,0.1-4.7-0.1c-1.4-0.2-2.5-0.5-3.3-0.8
			c-0.8-0.3-0.8-0.5,0-0.4c-0.3-2.2-0.4-5-0.5-8.3c-0.1-3.3-0.1-6.9-0.1-10.8c0-3.9,0-7.8,0-11.9c0-4.1,0-8-0.1-11.7
			c-0.1-3.7-0.3-7.1-0.6-10.2c-0.3-3-0.7-5.5-1.3-7.4c-0.7-1.6-1.9-2.8-3.7-3.5c-1.8-0.7-4-1-6.7-0.9c-2.6,0.1-5.5,0.6-8.6,1.5
			c-3.1,0.9-6.2,2.1-9.4,3.6s-6.3,3.4-9.3,5.5c-3,2.2-5.6,4.6-7.9,7.2l-1,46C619,154.2,618.4,154.7,617.5,155z"/>
		<path fill="#FFFFFF" d="M729,204.8c5-0.9,9-3,12.1-6.3c3.1-3.3,5.5-7.2,7.3-11.8c1.8-4.6,3-9.6,3.6-15c0.6-5.4,1-10.7,1.1-16
			c0.1-5.3,0-10.3-0.3-14.9c-0.3-4.7-0.4-8.5-0.5-11.7c-3,2.8-6.5,5.7-10.5,8.8c-3.9,3.1-8.2,5.9-12.8,8.3
			c-4.6,2.5-9.6,4.4-14.9,5.8c-5.3,1.4-10.9,1.9-16.7,1.5c-3.1,0-5.7-0.8-7.6-2.3c-1.9-1.5-2.9-3.9-2.9-7.1
			c0.2-3.6,1.1-7.7,2.7-12.3c1.6-4.5,3.7-9.1,6.3-13.8c2.6-4.7,5.7-9.3,9.1-13.8c3.5-4.5,7.2-8.5,11.1-12.1c3.9-3.6,8-6.6,12.1-8.9
			c4.1-2.3,8.3-3.7,12.3-4.1s8,0.4,11.7,2.4c3.7,2,7.1,5.5,10,10.5c2,16,3.3,30,3.7,42c0.4,12,0.2,22.3-0.6,31
			c-0.8,8.7-2.2,15.9-4.1,21.7c-1.9,5.8-4.1,10.5-6.6,14.2s-5.3,6.5-8.4,8.4s-6.1,3.4-9.2,4.4c-3.1,1-6.1,1.7-9.1,2
			c-3,0.4-5.8,0.9-8.3,1.5c-3.9,0.2-7.4,0.2-10.4,0.2c-3,0-5.5-0.4-7.5-1c-1.9-0.6-3.3-1.7-4.1-3.1c-0.8-1.4-0.9-3.5-0.2-6.1
			L729,204.8z M740.9,91.7c-2.5,0-5,0.6-7.7,1.9s-5.3,3-7.9,5.1c-2.6,2.1-5.2,4.6-7.7,7.3c-2.5,2.8-4.8,5.6-6.9,8.6
			c-2.1,3-3.9,5.9-5.5,8.9c-1.6,3-2.9,5.7-3.7,8.3c-0.9,2.6-1.4,4.8-1.5,6.8c-0.1,1.9,0.4,3.4,1.4,4.3c1.5,1.2,3.9,1.6,7.1,1.2
			c3.2-0.4,6.8-1.4,10.7-3.2c3.9-1.7,7.8-4,11.9-6.9c4-2.8,7.6-6.1,10.8-9.8c3.2-3.7,5.6-7.8,7.4-12.2c1.7-4.4,2.3-9,1.6-13.8
			c0-1.3-0.3-2.3-0.8-3.2c-0.6-0.8-1.3-1.5-2.2-2c-0.9-0.5-2-0.8-3.2-1C743.4,91.7,742.1,91.7,740.9,91.7z"/>
		<path fill="#FFFFFF" d="M837.2,111.7c0-9.5,1.6-18.2,4.8-26.3c3.2-8,7.5-15,13-20.9c5.5-5.9,12-10.6,19.4-13.9
			c7.4-3.3,15.4-5,24-5c3.5,0,6.4,0.2,8.7,0.6c2.3,0.4,4.2,1.3,5.6,2.7c1.4,1.4,2.5,3.3,3.1,5.7c0.6,2.5,1,5.8,1,9.9
			c-4.9-4.6-10.1-7.4-15.7-8.5c-5.5-1.1-11-0.9-16.3,0.7c-5.3,1.6-10.4,4.2-15.2,7.9c-4.8,3.7-8.9,8.1-12.4,13.1
			c-3.5,5-6.1,10.5-7.9,16.4c-1.8,5.9-2.4,11.7-1.8,17.5c1.1,6,2.8,11.1,5.1,15.2c2.3,4.1,5.1,7.4,8.4,9.9c3.3,2.5,7.2,4.3,11.4,5.3
			c4.3,1.1,8.9,1.6,13.9,1.6c6.3-0.5,11.7-1.7,16.4-3.4s9-3.9,12.9-6.3c3.9-2.5,7.7-5.1,11.3-8.1c3.6-2.9,7.4-5.8,11.4-8.6
			c0.8,0,1.5,0,2.3,0.1c0.8,0.1,1.5,0.3,2.2,0.6c0.7,0.3,1.2,0.8,1.7,1.4c0.4,0.6,0.6,1.5,0.6,2.5c-4.2,4.1-8.8,8.1-13.6,12.2
			c-4.9,4.1-10,7.7-15.5,10.9s-11.2,5.7-17.1,7.6s-12.1,2.7-18.3,2.5c-5.6,0-11-1-16.2-3.1c-5.2-2.1-9.8-5-13.9-8.8
			s-7.3-8.4-9.7-13.6C838.4,124,837.2,118.2,837.2,111.7z"/>
		<path fill="#FFFFFF" d="M1014.8,151.8c0-2.7,0-5.9-0.1-9.5c-0.1-3.6-0.3-7.3-0.6-11.2c-0.3-3.9-0.8-7.8-1.4-11.7
			c-0.6-3.9-1.5-7.4-2.5-10.7c-1-3.2-2.3-5.9-3.7-8.2c-1.5-2.2-3.3-3.7-5.4-4.4c-4.7-0.9-9.2-0.8-13.5,0.3c-4.3,1.1-8,3.8-11,8.1
			c-3.1,4.3-5.5,10.3-7.2,18.2c-1.7,7.9-2.3,18.1-1.9,30.7c-1,0.4-2.1,0.8-3.1,1.1c-1.1,0.3-2.2,0.5-3.3,0.6c-1.1,0.1-2.3,0-3.4-0.2
			c-1.1-0.2-2.3-0.7-3.6-1.3c0.3-11.1,0.4-21.6,0.2-31.5c-0.2-9.9-0.4-19.2-0.7-27.8s-0.4-16.6-0.3-23.9c0-7.3,0.5-13.9,1.3-19.7
			c0.8-1.7,2-2.9,3.4-3.7s2.8-1.1,4.2-1.1s2.6,0.4,3.7,1.1c1.1,0.8,1.6,1.8,1.7,3.2c-0.1,0.9-0.2,2.5-0.4,4.6
			c-0.2,2.2-0.3,4.7-0.5,7.6c-0.2,2.9-0.3,6.1-0.4,9.5c-0.1,3.4-0.2,6.8-0.3,10.1c0,3.3,0,6.5,0.1,9.6s0.4,5.7,0.8,7.9
			c2-2,4.2-4.2,6.4-6.4c2.2-2.2,4.8-4.2,7.7-5.8s6.3-2.8,10.2-3.4c3.9-0.6,8.4-0.4,13.8,0.7c3.6,0.8,6.7,2.7,9.3,5.5
			c2.5,2.8,4.6,6.3,6.2,10.3c1.6,4,2.9,8.4,3.8,13.1c0.9,4.7,1.6,9.5,2.1,14.3c0.5,4.8,0.8,9.4,0.9,13.7c0.1,4.4,0.3,8.1,0.4,11.2
			c-0.4,0.8-1.3,1.4-2.7,2c-1.4,0.6-2.8,0.9-4.3,1c-1.5,0.1-2.8-0.2-4-0.8C1015.4,154.4,1014.8,153.4,1014.8,151.8z"/>
		<path fill="#FFFFFF" d="M1095.9,128.6c-2.5,3.8-5.3,7.3-8.5,10.3c-3.2,3.1-6.8,5.7-10.6,7.9c-3.9,2.2-8,3.7-12.6,4.8
			c-4.5,1-9.3,1.3-14.3,0.9c-1.8,0-3.7-0.2-5.7-0.6c-2-0.4-3.9-1.1-5.6-2c-1.7-0.9-3.2-2.2-4.3-3.7c-1.1-1.5-1.7-3.4-1.7-5.7
			c-0.9-4.7-0.7-9.7,0.7-14.8c1.4-5.1,3.6-10.1,6.5-15c2.9-4.9,6.5-9.4,10.7-13.7c4.2-4.3,8.7-7.9,13.4-10.9c4.7-3,9.6-5.2,14.5-6.6
			s9.7-1.7,14.3-0.8c3.5,0,6.2,1.1,8.1,3.4s3.3,5.4,4.3,9.2c1,3.9,1.6,8.3,1.8,13.3c0.2,5,0.3,10.3,0.4,15.7
			c0,5.5,0.1,10.9,0.3,16.4c0.2,5.5,0.6,10.5,1.4,15.2c-0.1,0.2-0.5,0.7-1.2,1.5c-0.7,0.8-1.6,1.5-2.7,2c-1.1,0.5-2.3,0.6-3.7,0.3
			c-1.4-0.3-2.8-1.5-4.1-3.6c-0.5-0.8-0.8-2.3-1-4.5s-0.2-4.5-0.1-6.9c0-2.5,0.1-4.8,0.1-7.1
			C1096.3,131.3,1096.2,129.6,1095.9,128.6z M1087.9,90c-3.3-0.3-6.7,0.3-10.3,1.5s-7,3.1-10.3,5.4c-3.3,2.3-6.5,5-9.5,8.1
			c-3,3.1-5.5,6.3-7.7,9.6c-2.2,3.3-3.9,6.7-5.1,10c-1.2,3.3-1.8,6.3-1.7,9.1c0.1,2.8,1,5.1,2.7,7s4.3,3.2,7.8,3.7
			c4.9,0.1,9.6-1.2,14.1-3.7c4.5-2.6,8.5-5.8,12.2-9.7c3.6-3.9,6.7-8.1,9.2-12.8c2.5-4.6,4.2-9,5.1-13c0.9-4.1,0.9-7.5-0.1-10.3
			C1093.4,92.1,1091.2,90.4,1087.9,90z"/>
		<path fill="#FFFFFF" d="M1115.7,79.3c0.2-1.6,0.8-2.6,2-3c1.2-0.4,2.5-0.5,3.8-0.3c2.2,0.3,3.9,1.4,5,3.4c1.1,2,1.9,4.2,2.3,6.7
			c0.4,2.5,0.6,4.8,0.6,7.2c0,2.3,0,4,0.1,5c2.4-2,5-4.4,7.9-7c2.9-2.6,6.5-5,10.7-7.2s9.2-3.8,15.1-5c5.9-1.1,13-1.2,21.3-0.2
			c2,0.5,3.5,1.5,4.5,2.9c1,1.4,1.5,2.9,1.5,4.5c0,1.6-0.4,3-1.3,4.3c-0.9,1.3-2.1,2.1-3.7,2.2c-2-1.5-4.7-2.4-8.1-2.7
			c-3.4-0.3-7.1,0-11.1,0.9c-4,0.8-8.1,2.2-12.3,4.1c-4.1,1.9-8,4.2-11.5,7c-3.5,2.8-6.5,6-9,9.6c-2.5,3.6-4,7.6-4.6,11.9v27.8
			c-0.2,0.4-0.8,1-2,1.8c-1.2,0.8-2.5,1.4-4,1.8c-1.5,0.4-3,0.4-4.4-0.1c-1.5-0.4-2.6-1.6-3.4-3.6c0-0.6,0-2.5,0-5.6s0-7,0.1-11.6
			c0-4.5,0.1-9.5,0.2-14.9c0.1-5.4,0.1-10.6,0.2-15.8c0-5.2,0.1-9.9,0.1-14.2C1115.7,85.2,1115.7,81.8,1115.7,79.3z"/>
		<path fill="#FFFFFF" d="M1192.2,98.5c-0.6-1.2-0.8-2.4-0.6-3.6c0.3-1.2,0.8-2.3,1.7-3.2c0.8-0.9,1.7-1.4,2.7-1.5h23.7l-0.5-39.6
			c0.3-1,1.1-1.9,2.2-2.5c1.1-0.7,2.3-1.1,3.6-1.2s2.5,0,3.8,0.5c1.3,0.5,2.3,1.3,3,2.6l1.1,39.6l22.5-0.5c1.5,0.8,2.6,1.9,3.1,3.1
			c0.5,1.2,0.8,2.4,0.7,3.6c-0.1,1.1-0.4,2.2-1,3c-0.6,0.9-1.2,1.4-1.8,1.6l-23.5,0.5c-0.1,5.2,0,10,0.2,14.2
			c0.2,4.2,0.5,8.3,0.8,12.2c0.3,3.9,0.5,8,0.8,12.2c0.2,4.2,0.3,8.9,0.3,14c-2.5,1.7-5,2.5-7.5,2.4c-2.5-0.1-4.3-1.1-5.2-3.2
			l-1.4-51.5h-24.6C1194.2,100.5,1192.9,99.7,1192.2,98.5z"/>
		<path fill="#FFFFFF" d="M1262.1,134.1c-0.8-6.9-0.2-13.7,1.8-20.5c1.9-6.8,5-12.9,9.1-18.3c4.1-5.4,9.1-9.7,14.9-12.9
			c5.8-3.3,12.3-4.8,19.3-4.6c2.9-0.1,6.2,0.6,9.9,1.9c3.7,1.4,7.2,3.2,10.3,5.6c3.1,2.4,5.6,5.2,7.6,8.4s2.5,6.5,1.8,10.1
			c0.1,1.8-0.8,3.2-2.7,4.4c-1.9,1.1-4.3,2.1-7.4,2.7c-3.1,0.7-6.7,1.2-10.8,1.5c-4.1,0.3-8.4,0.5-12.9,0.7
			c-4.5,0.2-9.1,0.3-13.8,0.4c-4.7,0.1-9.1,0.4-13.2,0.7c-2.4,6.5-3.1,11.9-2.1,16.1c1,4.2,3,7.4,6.2,9.6c3.2,2.2,7.1,3.5,11.8,3.9
			s9.6,0.1,14.7-1s10.1-2.6,15-4.9c4.9-2.2,9.1-4.9,12.7-8.1c0.5,0,1.2,0.2,2,0.5c0.8,0.3,1.6,0.8,2.3,1.3c0.8,0.6,1.4,1.1,2,1.8
			c0.5,0.6,0.8,1.2,0.8,1.7c-2.1,3.6-5.3,6.9-9.6,9.8c-4.3,2.9-9.2,5.2-14.6,7c-5.4,1.8-11.1,2.9-16.9,3.3c-5.9,0.4-11.4,0-16.6-1.3
			c-5.2-1.3-9.7-3.5-13.6-6.7C1266.1,143.9,1263.5,139.6,1262.1,134.1z M1322.8,100.2c-0.4-3.2-1.7-5.6-3.8-7.2
			c-2.1-1.6-4.6-2.6-7.5-3.1c-2.9-0.5-5.9-0.4-9.1,0.2c-3.2,0.6-6.2,1.5-9,2.7c-2.8,1.2-5,2.6-6.9,4.2c-1.8,1.6-2.8,3.2-2.9,4.8
			L1322.8,100.2z"/>
		<path fill="#FFFFFF" d="M1346.3,79.3c0.2-1.6,0.8-2.6,2-3c1.2-0.4,2.5-0.5,3.8-0.3c2.2,0.3,3.9,1.4,5,3.4c1.1,2,1.9,4.2,2.3,6.7
			c0.4,2.5,0.6,4.8,0.6,7.2c0,2.3,0,4,0.1,5c2.4-2,5-4.4,7.9-7c2.9-2.6,6.5-5,10.7-7.2s9.2-3.8,15.1-5c5.9-1.1,13-1.2,21.3-0.2
			c2,0.5,3.5,1.5,4.5,2.9c1,1.4,1.5,2.9,1.5,4.5c0,1.6-0.4,3-1.3,4.3c-0.9,1.3-2.1,2.1-3.7,2.2c-2-1.5-4.7-2.4-8.1-2.7
			c-3.4-0.3-7.1,0-11.1,0.9c-4,0.8-8.1,2.2-12.3,4.1c-4.1,1.9-8,4.2-11.5,7c-3.5,2.8-6.5,6-9,9.6c-2.5,3.6-4,7.6-4.6,11.9v27.8
			c-0.2,0.4-0.8,1-2,1.8c-1.2,0.8-2.5,1.4-4,1.8c-1.5,0.4-3,0.4-4.4-0.1c-1.5-0.4-2.6-1.6-3.4-3.6c0-0.6,0-2.5,0-5.6s0-7,0.1-11.6
			c0-4.5,0.1-9.5,0.2-14.9c0.1-5.4,0.1-10.6,0.2-15.8c0-5.2,0.1-9.9,0.1-14.2C1346.3,85.2,1346.3,81.8,1346.3,79.3z"/>
		<path fill="#FFFFFF" d="M1429.1,146c7.6-0.6,14.5-1.7,20.8-3.2s11.5-3.3,15.7-5.3c4.3-2,7.5-4.1,9.6-6.3c2.1-2.2,2.9-4.5,2.3-6.7
			c-0.7-2.4-4-3.4-10.1-3c-6.1,0.3-15,1.7-26.9,4.1c-3.5-0.3-6.5-1.1-9.1-2.4c-2.6-1.4-4.6-3-6.2-4.9s-2.5-3.9-2.9-6
			c-0.4-2.1-0.3-4,0.4-5.6c0-2.8,0.8-5.5,2.5-8.2s3.9-5.1,6.7-7.4c2.8-2.2,6.1-4.3,9.9-6.1c3.8-1.8,7.8-3.3,12.1-4.3
			c4.3-1.1,8.8-1.7,13.3-2s9.1,0,13.6,0.9c2.2,1,4,2.2,5.4,3.5c1.4,1.3,2.3,2.6,2.9,3.9c0.5,1.3,0.5,2.6,0,3.7
			c-0.5,1.2-1.6,2.2-3.2,3c-3.5-1.5-7.1-2.6-11-3.4c-3.9-0.7-7.7-1-11.5-0.8c-3.8,0.2-7.5,0.7-11,1.7c-3.5,1-6.6,2.3-9.3,4.1
			c-2.7,1.7-4.8,3.9-6.5,6.4c-1.7,2.5-2.6,5.4-2.7,8.6c0,1.8,0.7,2.9,2.1,3.5c1.4,0.6,3,0.8,5,0.8c1.9,0,3.9-0.3,6-0.6
			c2.1-0.4,3.7-0.6,5-0.6c8.4-1.2,15.3-1.5,20.8-1s9.6,1.6,12.5,3.3c2.9,1.7,4.6,3.8,5.1,6.3s0,5.3-1.5,8.2
			c-1.5,2.9-3.9,5.9-7.2,8.8c-3.3,3-7.3,5.7-12.1,8.1c-4.7,2.5-10.1,4.5-16.1,6.2s-12.3,2.6-19.1,3c-1.6,0.6-2.9,0.5-4-0.3
			c-1.1-0.8-1.8-1.8-2.3-3s-0.7-2.6-0.6-4S1428.2,146.7,1429.1,146z"/>
	</g>
</g>
</svg>
