<?xml version="1.0" encoding="utf-8"?>
<!-- Generator: Adobe Illustrator 19.1.0, SVG Export Plug-In . SVG Version: 6.00 Build 0)  -->
<svg version="1.1" id="Layer_2" xmlns="http://www.w3.org/2000/svg" xmlns:xlink="http://www.w3.org/1999/xlink" x="0px" y="0px"
	 viewBox="0 0 238 300" enable-background="new 0 0 238 300" xml:space="preserve">
<path fill="#F6F7F8" d="M180.7,127.2l-19-11.4c-1.2-0.7-1.5-2.2-0.8-3.4l1-1.6c0.7-1.2,2.2-1.5,3.4-0.8l19,11.4
	c1.2,0.7,1.5,2.2,0.8,3.4l-1,1.6C183.4,127.5,181.9,127.9,180.7,127.2z"/>
<path fill="#F6F7F8" d="M176.4,133.2l-19-11.4c-1.2-0.7-1.5-2.2-0.8-3.4l1-1.6c0.7-1.2,2.2-1.5,3.4-0.8l19,11.4
	c1.2,0.7,1.5,2.2,0.8,3.4l-1,1.6C179,133.5,177.5,133.9,176.4,133.2z"/>
<path fill="#F6F7F8" d="M172,139.2l-19-11.4c-1.2-0.7-1.5-2.2-0.8-3.4l1-1.6c0.7-1.2,2.2-1.5,3.4-0.8l19,11.4
	c1.2,0.7,1.5,2.2,0.8,3.4l-1,1.6C174.7,139.5,173.2,139.9,172,139.2z"/>
<path fill="#F6F7F8" d="M167.7,145.2l-19-11.4c-1.2-0.7-1.5-2.2-0.8-3.4l1-1.6c0.7-1.2,2.2-1.5,3.4-0.8l19,11.4
	c1.2,0.7,1.5,2.2,0.8,3.4l-1,1.6C170.3,145.6,168.8,145.9,167.7,145.2z"/>
<path fill="#F6F7F8" d="M155.7,132.7c-3.7,5.2-7.7,10.2-11.7,15c-21.4,25-45.2,41.7-69,48.3c-22.8,6.3-43.1,4.7-54.5-4.3
	c-3.5-2.7-5.9-6.1-6.9-9.7c-4.2-14.3,12.3-26.9,29.5-34.1l-5.6,18.8l7.1-9.3c12.6-16.5,26.1-26.2,26.2-26.3l8.9-6.4l-30.8,7.4
	C5.9,145.4-3.7,169.2,1.1,185.6c1.4,4.8,4.1,9.3,8,13.1c1,1,2.1,2,3.3,2.9c4.2,3.3,9.3,6,15.1,7.8c14.3,4.5,31.8,4.1,50.8-1.1
	c33.9-9.4,64.7-36.3,87.6-68C162.6,137.8,159.1,135.3,155.7,132.7z"/>
<path fill="#F6F7F8" d="M187.3,104.9c1.5-3.2,0-7.1-3.2-8.5c-1.6-0.7-3.3-0.8-4.9-0.2c-1.6,0.6-2.9,1.8-3.6,3.4
	c-5.3,11.6-12.2,23.3-20.1,34.6c1.3,0.3,2.6,1.3,3.3,2.6c8.2-11.5,15.2-23.6,20.6-35.4c0.2-0.5,0.7-0.9,1.2-1.1
	c0.6-0.2,1.1-0.2,1.7,0.1c0.5,0.2,0.9,0.7,1.1,1.2c0.2,0.6,0.2,1.1-0.1,1.7c-5.4,11.8-12.4,23.9-20.6,35.6c1.4,0.3,2.6,1.2,3.4,2.5
	C174.6,129.2,181.8,116.9,187.3,104.9z"/>
<g>
	<path fill="#F6F7F8" d="M77.7,232.8l4.5-1.4c3.2,9.8,8.5,18.9,14.7,27.3c6.2,8.4,13.5,16,21.7,22.3c4.1,3.2,8.4,6,13,8.2
		c4.6,2.2,9.4,3.9,14.3,4.6c4.9,0.7,9.9,0.4,14.5-1.1c4.6-1.5,8.8-4.2,12.5-7.5l2.6-2.7c0.9-0.9,1.6-1.9,2.4-2.9
		c1.6-1.9,2.9-4.1,4.2-6.2c2.4-4.4,4.3-9.1,5.4-14c2.3-9.8,1.9-20.3-0.4-30.2c-2.4-9.9-6.7-19.4-12.8-27.5c-0.7-1-1.6-2-2.4-3
		c-0.8-0.9-1.6-1.9-2.5-2.8c-1.7-1.8-3.6-3.5-5.5-5.1l-1.4-1.1l-1.5-1l-1.5-0.9l-0.7-0.3c-0.2-0.1-0.5-0.3-0.6-0.3l-0.4-0.2
		c-0.1,0-0.2,0-0.3-0.1c-0.2,0-0.4,0-0.6,0c-0.4,0-0.7,0.3-0.8,0.7c-0.1,0.2-0.1,0.4-0.1,0.5c0,0.1,0,0.2,0,0.3l0,0.1l0,0.1l0,0.1
		l0.1,0.5l0.3,0.7c0.2,0.5,0.4,0.9,0.7,1.4c1.1,1.9,2.5,3.7,4.2,5.2c1.7,1.6,3.7,2.9,5.8,4c0.5,0.3,1,0.6,1.6,0.8
		c0.6,0.2,1.1,0.5,1.6,0.7l1.7,0.7l1.8,0.6c4.8,1.5,9.7,2.4,14.6,2.4c4.9,0.1,9.8-0.7,14.4-2.2c4.6-1.5,8.9-3.9,12.7-6.9
		c3.7-3,6.9-6.8,9.2-11c4.7-8.3,5.6-18.5,2.9-27.7c-1.3-4.6-3.5-9-6.3-13.1c-0.7-1-1.4-2-2.2-3c-0.8-1-1.5-2-2.4-2.9
		c-1.7-1.9-3.5-3.7-5.3-5.5c-3.7-3.6-7.6-7-11.6-10.2c-4-3.1-8.3-6-12.6-8.2c-2.2-1.1-4.4-2-6.4-2.5c-1-0.3-2-0.4-2.9-0.4
		c-0.8,0-1.6,0.1-2.2,0.4c-0.2,0-0.3,0.1-0.4,0.2c-0.1,0.1-0.3,0.1-0.4,0.2c-0.1,0.1-0.2,0.2-0.4,0.3c-0.1,0.1-0.1,0.1-0.2,0.2
		c-0.3,0.4-0.8,1.2-1.2,2.2c-0.8,2-1.4,4.4-1.9,6.8c-1,4.9-1.7,10.1-2.2,15.3l-0.8,7.9l-0.5,4.1c-0.2,1.4-0.4,2.8-0.7,4.3l-9.8-2.1
		c0.2-1,0.4-2.3,0.6-3.5l0.5-3.9l0.9-7.9c0.7-5.3,1.4-10.7,2.6-16.2c0.6-2.8,1.3-5.5,2.6-8.5c0.6-1.5,1.4-3,2.8-4.7
		c0.4-0.4,0.9-0.9,1.3-1.2c0.4-0.3,0.8-0.6,1.3-0.9c0.4-0.3,0.9-0.5,1.3-0.7c0.5-0.2,0.9-0.5,1.4-0.6c1.9-0.7,3.8-0.9,5.6-0.9
		c1.8,0.1,3.5,0.3,5,0.7c3.1,0.8,5.9,2,8.4,3.3c5.1,2.7,9.7,5.9,14,9.4c4.3,3.4,8.4,7.1,12.3,11c1.9,1.9,3.8,3.9,5.7,6.1
		c0.9,1.1,1.8,2.2,2.7,3.3c0.9,1.1,1.7,2.3,2.5,3.5c3.2,4.8,5.7,10,7.3,15.6c1.6,5.6,2.1,11.6,1.5,17.5l-0.1,1.1l-0.2,1.1l-0.4,2.2
		c-0.3,1.4-0.7,2.9-1.1,4.3c-1,2.8-2.1,5.5-3.6,8.1c-2.9,5.1-6.8,9.6-11.3,13.3c-4.6,3.6-9.8,6.4-15.3,8.1
		c-5.5,1.8-11.3,2.6-17.1,2.4c-5.7-0.1-11.4-1.2-16.8-3c-5.4-1.7-10.8-4.5-15.3-8.6c-2.2-2.1-4.2-4.4-5.7-7.2
		c-0.4-0.7-0.7-1.4-1-2.2l-0.4-1.2c-0.1-0.5-0.3-0.9-0.4-1.4c-0.4-2.1-0.4-4.6,0.5-6.6c0.4-1,1.1-1.9,1.9-2.6
		c0.5-0.3,0.9-0.7,1.4-0.8l0.7-0.3c0.2-0.1,0.5-0.1,0.8-0.2l0.8-0.2c0.3,0,0.5,0,0.8,0c0.6,0,1.1,0,1.7,0.1c0.6,0.1,1.1,0.2,1.7,0.3
		c0.5,0.2,1,0.3,1.5,0.5c0.5,0.2,0.9,0.4,1.2,0.5l1.1,0.5c0.7,0.4,1.3,0.8,2,1.2l1.8,1.3l1.7,1.3c2.2,1.9,4.2,3.7,6.1,5.8
		c1,1,1.9,2.1,2.8,3.2c0.9,1.1,1.8,2.2,2.6,3.3c6.6,9,11.2,19.4,13.6,30.2c2.4,10.8,2.7,22.3,0,33.2c-1.3,5.5-3.4,10.7-6.2,15.6
		c-1.5,2.4-3,4.8-4.8,7c-0.9,1.1-1.7,2.2-2.7,3.2l-3,3c-4.2,3.8-9.2,7-14.8,8.7c-5.6,1.8-11.5,2.1-17.1,1.2c-5.6-0.9-11-2.8-16-5.3
		c-5-2.5-9.6-5.6-13.9-8.9c-8.6-6.8-16.1-14.8-22.5-23.6C86.5,252.9,81,243.3,77.7,232.8z"/>
</g>
</svg>
