<?xml version="1.0" encoding="utf-8"?>
<!-- Generator: Adobe Illustrator 19.1.0, SVG Export Plug-In . SVG Version: 6.00 Build 0)  -->
<svg version="1.1" id="Layer_2" xmlns="http://www.w3.org/2000/svg" xmlns:xlink="http://www.w3.org/1999/xlink" x="0px" y="0px"
	 viewBox="0 0 214 198.4" enable-background="new 0 0 214 198.4" xml:space="preserve">
<path d="M101.7,26.5l-21.4,5.4c-1.3,0.3-2.6-0.5-3-1.8l-0.5-1.8c-0.3-1.3,0.5-2.6,1.8-3l21.4-5.4c1.3-0.3,2.6,0.5,3,1.8l0.5,1.8
	C103.8,24.8,103,26.2,101.7,26.5z"/>
<path d="M102.9,33.8l-21.4,5.4c-1.3,0.3-2.6-0.5-3-1.8l-0.5-1.8c-0.3-1.3,0.5-2.6,1.8-3l21.4-5.4c1.3-0.3,2.6,0.5,3,1.8l0.5,1.8
	C105,32.2,104.2,33.5,102.9,33.8z"/>
<path d="M104.1,41.1l-21.4,5.4c-1.3,0.3-2.6-0.5-3-1.8l-0.5-1.8c-0.3-1.3,0.5-2.6,1.8-3l21.4-5.4c1.3-0.3,2.6,0.5,3,1.8l0.5,1.8
	C106.2,39.5,105.4,40.8,104.1,41.1z"/>
<path d="M105.3,48.5l-21.4,5.4c-1.3,0.3-2.6-0.5-3-1.8l-0.5-1.8c-0.3-1.3,0.5-2.6,1.8-3l21.4-5.4c1.3-0.3,2.6,0.5,3,1.8l0.5,1.8
	C107.4,46.8,106.6,48.1,105.3,48.5z"/>
<path d="M96.3,45.6c6.4,38.1,3.8,78.4-13.2,108.6c-9.3,16.4-20.9,28.6-33.4,35.1c-4.9,2.6-9.9,4.2-14.8,4.7
	c-6.2,0.7-12-0.3-16.8-2.9c-13.3-7.3-21.9-28.8-2.5-65.7l5.8-9.6c-0.3,4.6-0.4,11,0,18.4l-2.8-5.2l-1.8,3.9
	c-14.3,30.9-7.6,48.4,3.4,54.4c4.1,2.2,9,3.1,14.2,2.4l0.1,0c15.7-1.9,32.4-16,44.7-37.7c12.6-22.2,17.8-51.7,15.2-85.4
	C94,60.1,93.1,53.5,92,46.9c-1.1,0.9-2.6,1.4-4.1,1.2c1,6.3,1.8,12.6,2.3,18.9c2.6,32.8-2.5,61.4-14.7,82.9
	c-11.6,20.5-27.2,33.8-41.6,35.5c-4.4,0.5-8.5-0.2-11.8-2c-13.1-7.1-10.3-27.7-3.3-44.9l9.3,17.3l-1.6-11.6
	c-2.8-20.6-0.1-37-0.1-37.1l1.8-10.8l-16.5,27C-9,163,1.1,186.6,16.1,194.8c4.4,2.4,9.5,3.6,14.9,3.6c1.4,0,2.9-0.1,4.4-0.3
	c5.4-0.6,10.8-2.4,16.2-5.2c13.3-6.9,25.4-19.6,35.1-36.8c17.3-30.6,20.1-71.4,13.9-110C99.3,46.6,97.6,46.4,96.3,45.6z"/>
<path d="M90.6,6.1c-1.2-3.3-5-5-8.3-3.8c-1.6,0.6-2.9,1.8-3.6,3.4C78,7.2,77.9,9,78.5,10.6c4.5,11.9,7.9,25.1,10.2,38.7
	c1.2-0.7,2.7-0.9,4.2-0.5C90.6,34.8,87,21.3,82.5,9.1c-0.2-0.5-0.2-1.1,0.1-1.7c0.2-0.5,0.7-0.9,1.2-1.1c0.6-0.2,1.1-0.2,1.7,0.1
	C86,6.6,86.4,7,86.6,7.5c4.5,12.1,8.1,25.6,10.6,39.7c1.2-0.8,2.7-1,4.2-0.6C98.9,32.2,95.2,18.5,90.6,6.1z"/>
<g>
	<path d="M103.5,174l2.2-4.2c9.2,4.7,19.4,7.4,29.7,8.9c10.3,1.5,20.9,1.8,31.1,0.5c5.1-0.7,10.2-1.8,15-3.4
		c4.8-1.6,9.4-3.9,13.4-6.9c4-3,7.3-6.7,9.5-11.1c2.2-4.3,3.3-9.2,3.5-14.2l0-3.7c0-1.2-0.2-2.5-0.4-3.8c-0.2-2.5-0.8-5-1.4-7.4
		c-1.4-4.8-3.4-9.5-6.1-13.7c-5.3-8.6-13-15.7-21.6-21.1c-8.7-5.3-18.4-9-28.5-10.4c-1.2-0.2-2.5-0.3-3.8-0.4
		c-1.3-0.1-2.5-0.2-3.8-0.2c-2.5-0.1-5.1,0-7.5,0.3l-1.8,0.2l-1.7,0.3l-1.6,0.4l-0.8,0.3c-0.3,0.1-0.5,0.2-0.6,0.2l-0.4,0.2
		c-0.1,0.1-0.2,0.1-0.2,0.2c-0.2,0.1-0.3,0.2-0.4,0.4c-0.2,0.3-0.3,0.7-0.1,1c0.1,0.2,0.2,0.3,0.3,0.4c0.1,0.1,0.1,0.1,0.2,0.2
		l0.1,0.1l0.1,0l0.1,0.1l0.5,0.3l0.7,0.3c0.5,0.2,1,0.4,1.5,0.5c2.1,0.6,4.4,0.8,6.7,0.7c2.3-0.1,4.7-0.5,6.9-1.2
		c0.6-0.2,1.1-0.3,1.7-0.6c0.6-0.2,1.1-0.4,1.7-0.7l1.7-0.7l1.7-0.9c4.4-2.3,8.5-5.2,12-8.6c3.5-3.4,6.5-7.4,8.6-11.7
		c2.2-4.3,3.6-9.1,4.1-13.8c0.5-4.8,0-9.7-1.3-14.2c-2.5-9.3-9.1-17-17.6-21.6c-4.2-2.3-8.9-3.9-13.7-4.8c-1.2-0.2-2.4-0.5-3.7-0.6
		c-1.2-0.1-2.5-0.3-3.7-0.4C133.3,9,130.7,9,128.1,9c-5.2,0.1-10.3,0.4-15.4,1c-5.1,0.6-10.1,1.6-14.7,3.1c-2.3,0.8-4.5,1.7-6.3,2.8
		c-0.9,0.5-1.7,1.2-2.3,1.8c-0.6,0.6-1.1,1.2-1.3,1.8c-0.1,0.1-0.1,0.3-0.2,0.4c0,0.1-0.1,0.3-0.1,0.4c0,0.2,0,0.3-0.1,0.5
		c0,0.1,0,0.1,0,0.2c0,0.5,0.3,1.4,0.7,2.4c0.8,2,2.1,4.1,3.4,6.2c2.7,4.2,6,8.3,9.2,12.4l5,6.2l2.5,3.2c0.9,1.1,1.7,2.2,2.6,3.5
		l-8.4,5.4c-0.6-0.9-1.3-1.9-2.1-2.9l-2.4-3.1l-5-6.3c-3.3-4.2-6.6-8.5-9.7-13.3c-1.5-2.4-3-4.9-4.2-7.8c-0.6-1.5-1.2-3.1-1.3-5.3
		c0-0.6,0-1.2,0-1.8c0.1-0.5,0.2-1,0.3-1.5c0.1-0.5,0.3-1,0.4-1.5c0.2-0.5,0.3-1,0.6-1.4c0.8-1.9,2.1-3.3,3.4-4.6
		c1.3-1.2,2.7-2.2,4-3c2.8-1.6,5.5-2.7,8.3-3.6c5.5-1.7,11-2.7,16.5-3.3c5.5-0.6,11-0.9,16.4-0.9c2.8,0,5.5,0.1,8.3,0.3
		c1.4,0.1,2.8,0.3,4.2,0.5c1.4,0.1,2.8,0.4,4.2,0.7c5.6,1.1,11.1,3,16.2,5.9c5.1,2.9,9.7,6.7,13.4,11.3l0.7,0.9l0.6,0.9l1.3,1.8
		c0.8,1.2,1.5,2.5,2.2,3.8c1.3,2.7,2.4,5.4,3.2,8.2c1.6,5.7,2,11.6,1.4,17.4c-0.7,5.8-2.4,11.4-5.1,16.6c-2.6,5.2-6.2,9.8-10.3,13.8
		c-4.2,4-8.9,7.2-14,9.8c-5,2.7-10.8,4.5-16.8,4.7c-3,0.1-6.1-0.2-9.1-1.1c-0.8-0.2-1.5-0.5-2.3-0.8l-1.1-0.5
		c-0.4-0.2-0.9-0.5-1.3-0.7c-1.8-1.2-3.6-2.9-4.3-5c-0.4-1-0.5-2.1-0.4-3.2c0.1-0.5,0.2-1.1,0.4-1.6l0.3-0.8
		c0.1-0.3,0.3-0.5,0.4-0.7l0.4-0.7c0.2-0.2,0.4-0.4,0.6-0.6c0.4-0.4,0.8-0.8,1.3-1.1c0.5-0.3,0.9-0.7,1.4-1c0.5-0.2,0.9-0.5,1.4-0.7
		c0.5-0.2,0.9-0.4,1.2-0.5l1.1-0.4c0.7-0.2,1.5-0.4,2.2-0.6l2.2-0.4l2.2-0.3c2.9-0.2,5.6-0.4,8.5-0.2c1.4,0,2.8,0.2,4.2,0.3
		c1.4,0.2,2.8,0.3,4.2,0.5c11.1,1.7,21.6,5.8,31,11.7c9.3,6,17.7,13.8,23.5,23.4c3,4.8,5.2,10,6.7,15.4c0.7,2.7,1.3,5.5,1.5,8.3
		c0.1,1.4,0.3,2.8,0.4,4.2l0,4.3c-0.3,5.7-1.6,11.5-4.3,16.6c-2.7,5.2-6.7,9.6-11.3,12.9c-4.6,3.4-9.8,5.8-15,7.5
		c-5.3,1.7-10.7,2.8-16.1,3.5c-10.9,1.3-21.8,0.9-32.6-0.8C124,182,113.3,179.1,103.5,174z"/>
</g>
</svg>
